<?xml version="1.0" encoding="utf-8"?>
<!-- Generator: Adobe Illustrator 22.0.1, SVG Export Plug-In . SVG Version: 6.00 Build 0)  -->
<svg version="1.1" id="Columbia_Engineering" xmlns="http://www.w3.org/2000/svg" xmlns:xlink="http://www.w3.org/1999/xlink"
	 x="0px" y="0px" viewBox="0 0 5591.5 718.1" style="enable-background:new 0 0 5591.5 718.1;" xml:space="preserve">
<style type="text/css">
	.st0{fill:#002F87;}
</style>
<path id="Columbia_Engineering_2_" class="st0" d="M1708.4,157.6c0-1.9-1.5-2.6-5.2-2.6c-9.8,0-25.5,0.7-27.8,0.7
	c-1.9,0-21-0.7-35.6-0.7c-3.8,0-5.3,0.7-5.3,2.6c0,1.1,1.1,2.6,2.6,2.6c3,0,8.6,0.4,11.3,0.7c10.9,1.5,12.7,7.5,13.1,17.6
	c0.4,10.1,0.7,19.1,0.7,68.6v40.1c0,32.6-3.4,58.9-18.7,77.3c-11.2,13.5-30.8,22.5-51,22.5c-18.7,0-33-2.6-49.1-17.3
	c-14.3-12.8-24.4-31.9-24.4-78v-44.6c0-49.5,0-58.5,0.8-68.6c0.7-10.5,2.6-16.1,11.3-17.6c4.1-0.7,6-0.7,8.3-0.7c1.5,0,3-1.5,3-2.6
	c0-1.9-1.9-2.6-5.6-2.6c-9.8,0-30.4,0.7-33.4,0.7c-3,0-22.9-0.7-37.9-0.7c-3.8,0-5.3,0.7-5.3,2.6c0,1.1,1.5,2.6,2.6,2.6
	c3,0,8.6,0.4,11.3,0.7c10.9,1.5,12.7,7.5,13.5,17.6c0.8,10.1,0.8,19.1,0.8,68.6v46.9c0,46.5,12.7,68.6,28.9,83.6
	c23.3,21.7,57.8,22.5,68.6,22.5c19.5,0,45-2.6,69-23.3c26.3-22.5,30.8-61.1,30.8-95.6v-34.1c0-49.5-0.4-58.5,0.4-68.6
	c0.8-10.5,2.6-15.8,11.6-17.6c4.1-0.7,6-0.7,8.2-0.7C1707.3,160.2,1708.4,158.7,1708.4,157.6z M5239.3,375.5l0.7-186.8
	c0-19.1,0.8-25.5,11.6-27.8c3.7-0.7,6.4-0.7,7.9-0.7c2.3,0,3.8-1.9,3.8-3c0-1.9-2.6-2.3-6-2.3c-13.5,0-24.4,0.7-28.1,0.7
	c-3.8,0-19.5-0.7-34.5-0.7c-3.8,0-6.4,0.4-6.4,2.3c0,1.1,0.4,3,2.6,3c2.6,0,10.1,0.4,16.1,1.5c10.1,1.9,12,9,12.4,29.6l3.4,159.8
	c-10.1-10.5-45.4-48.4-78-82.1c-51-52.5-99-103.5-104.2-108.8c-3.4-3.4-9-9.7-12.7-9.7c-2.6,0-4.5,3.4-4.5,16.1v182.6
	c0,28.9-1.1,37.5-9.4,39.7c-4.9,1.5-10.9,1.9-13.5,1.9c-1.5,0-2.6,1.1-2.6,2.6c0,2.2,1.9,2.6,5.2,2.6c15,0,28.9-1.1,31.9-1.1
	c3,0,16.1,1.1,34.9,1.1c3.8,0,6-0.7,6-2.6c0-1.5-1.1-2.6-2.6-2.6c-3,0-10.5-0.4-16.5-1.9c-9-2.2-12-10.1-12.8-36.4l-3.8-150.4
	c10.1,11.3,47.3,50.3,85.5,90.4c34.9,36.4,82.5,83.3,85.9,86.2c18.4,16.9,21.7,19.5,25.1,19.5
	C5238.9,398.4,5239.3,396.5,5239.3,375.5z M4950.2,390.9c-3,0-10.1-0.7-15-1.5c-9.8-1.5-10.9-7.5-12-16.9c-1.5-13.1-1.5-38.2-1.5-69
	v-56.3c0-49.5,0-58.5,0.4-68.6c0.8-11.3,2.6-15.8,11.6-17.6c3.7-0.7,6-0.7,8.3-0.7c1.1,0,2.6-1.5,2.6-2.6c0-1.9-1.5-2.6-5.3-2.6
	c-10.1,0-31.5,0.7-33,0.7c-1.9,0-22.5-0.7-33.4-0.7c-3.8,0-5.2,0.7-5.2,2.6c0,1.1,1.1,2.6,2.6,2.6c2.3,0,6.4,0.4,10.1,1.1
	c7.1,1.5,9.8,6.4,10.5,17.3c0.8,10.1,0.8,19.1,0.8,68.6v56.3c0,30.8-0.4,55.9-1.9,69c-1.1,9.4-2.3,15.4-8.6,16.9
	c-3,0.8-7.1,1.5-10.1,1.5c-1.9,0-2.6,1.5-2.6,2.6c0,1.9,1.9,2.6,5.3,2.6c10.1,0,30.7-1.1,32.6-1.1c1.5,0,22.9,1.1,41.2,1.1
	c3.7,0,5.2-1.1,5.2-2.6C4952.8,392.4,4952,390.9,4950.2,390.9z M1321.1,395c9.7,0,21,0.4,36,0.7c15.4,0.7,33.8,1.1,57.4,1.1
	c17.6,0,18.8-1.1,21-8.6c2.6-9.4,4.9-28.5,4.9-31.9c0-3.4-0.8-4.9-2.2-4.9c-1.9,0-3,1.9-3.4,4.1c-1.1,6.4-3.8,13.1-7.9,18
	c-7.9,9.4-22.5,9.7-39.8,9.7c-25.9,0-38.6-2.2-43.9-7.5c-6-5.6-6.8-24.8-6.8-71.6v-57c0-49.5,0-58.5,0.4-68.6
	c0.8-11.3,2.6-16.1,12.4-18c3.8-0.4,8.6-0.8,10.9-0.8c1.1,0,2.6-1.1,2.6-2.2c0-1.9-1.9-2.6-5.3-2.6c-10.1,0-34.9,0.7-36.4,0.7
	c-1.9,0-22.5-0.7-37.5-0.7c-3.7,0-5.3,0.7-5.3,2.6c0,1.1,1.5,2.6,2.6,2.6c3,0,8.6,0.4,11.2,0.7c10.9,1.5,12.8,6.8,13.5,17.6
	c0.7,10.1,0.7,19.1,0.7,68.6v56.3c0,30.8,0,55.9-1.9,69c-1.5,9.4-2.3,15.4-8.6,16.9c-3,0.8-7.1,1.5-10.1,1.5c-1.9,0-2.6,1.5-2.6,2.6
	c0,1.9,1.9,2.6,5.3,2.6c5.2,0,12.4-0.4,19.1-0.7C1313.9,395,1319.6,395,1321.1,395z M3398.3,398.4c2.2,0,2.6-1.9,2.6-22.9l0.8-186.8
	c0-19.1,0.8-25.5,11.6-27.8c3.8-0.7,6.4-0.7,7.9-0.7c2.2,0,3.7-1.9,3.7-3c0-1.9-2.6-2.3-6-2.3c-13.5,0-24.4,0.7-28.1,0.7
	c-3.8,0-19.5-0.7-34.5-0.7c-3.8,0-6.4,0.4-6.4,2.3c0,1.1,0.4,3,2.6,3c2.6,0,10.1,0.4,16.1,1.5c10.1,1.9,12,9,12.4,29.6l3.4,159.8
	c-10.1-10.5-45.4-48.4-78-82.1c-51-52.5-99-103.5-104.3-108.8c-3.4-3.4-9-9.7-12.7-9.7c-2.6,0-4.5,3.4-4.5,16.1v182.6
	c0,28.9-1.1,37.5-9.4,39.7c-4.9,1.5-10.9,1.9-13.5,1.9c-1.5,0-2.6,1.1-2.6,2.6c0,2.2,1.9,2.6,5.2,2.6c15,0,28.9-1.1,31.9-1.1
	c3,0,16.1,1.1,34.9,1.1c3.7,0,6-0.7,6-2.6c0-1.5-1.1-2.6-2.6-2.6c-3,0-10.5-0.4-16.5-1.9c-9-2.2-12-10.1-12.8-36.4l-3.7-150.4
	c10.1,11.3,47.2,50.3,85.5,90.4c34.9,36.4,82.5,83.3,85.9,86.2C3391.5,395.7,3394.9,398.4,3398.3,398.4z M3100.2,387.5
	c1.9-7.9,4.9-33.4,4.9-36.4c0-2.6,0-5.6-2.3-5.6c-1.9,0-2.6,1.5-3.4,5.6c-2.6,15.4-7.1,22.9-16.9,27c-9.7,4.1-26.2,4.1-36,4.1
	c-36.7,0-42.4-4.9-43.5-30.8c-0.4-7.9,0-51.4,0-64.1v-33c0-1.5,0.8-2.6,2.6-2.6c6.4,0,43.5,0.7,53.6,1.9c14.6,1.5,18,7.9,19.5,13.1
	c1.5,4.9,1.5,8.6,1.5,12.4c0,1.9,0.8,3.4,2.6,3.4c2.6,0,2.6-4.1,2.6-7.1c0-2.6,0.8-16.5,1.5-24c1.1-12.4,3-18.8,3-21
	c0-2.2-0.8-3-1.9-3c-1.5,0-3,1.9-5.6,4.9c-3.4,3.8-8.6,4.5-17.6,5.3c-8.6,0.7-54.8,0.7-59.6,0.7c-1.9,0-2.2-1.1-2.2-3.7V131
	c0-2.6,0.8-3.8,2.2-3.8c4.1,0,45,0.4,51.4,1.1c20.2,2.3,24,6.8,26.6,12.7c1.9,4.5,2.3,10.9,2.3,13.5c0,3,0.8,4.9,3,4.9
	c1.5,0,2.3-2.2,2.6-4.1c0.7-4.5,1.5-21,1.9-24.7c1.1-10.5,3-15,3-17.6c0-1.9-0.4-3.4-1.5-3.4c-1.9,0-3.4,1.5-5.2,1.9
	c-3,0.7-9,1.5-16.1,1.9c-8.6,0.4-83.3,0.4-85.9,0.4L2972,113c-8.3-0.4-18.4-0.4-27-0.4c-4.1,0-6,0.8-6,3c0,1.5,1.5,2.2,3,2.2
	c3.4,0,9.8,0.4,12.8,1.1c12.4,2.6,15.4,8.6,16.1,21.4c0.7,12,0.7,22.5,0.7,81v66c0,36,0,65.6-1.9,81.4c-1.5,10.9-3.4,19.1-10.9,20.6
	c-3.4,0.8-7.9,1.5-11.3,1.5c-2.2,0-3,1.1-3,2.3c0,2.3,1.9,3,6,3c5.6,0,14.2-0.7,21.7-0.7c7.9-0.4,14.3-0.4,15-0.4
	c5.6,0,14.6,0.4,29.2,1.1c14.6,0.4,35.2,1.1,63.4,1.1C3094.6,397.2,3097.6,397.2,3100.2,387.5z M2795,467.6h7.2V38.2h-7.2V467.6z
	 M4553.9,353c-1.9,0-2.6,1.1-3.4,4.9c-1.9,12.8-6.4,18.4-15,22.1c-8.6,3.4-24.4,3.4-33,3.4c-32.6,0-38.6-4.1-39.4-25.5
	c-0.4-6.4,0-43.5,0-54.4v-26.6c0-1.1,0.4-2.2,2.2-2.2c5.6,0,40.9,0.4,49.9,1.5c12.7,1.5,15.7,5.3,16.9,9.8c1.5,4.1,1.5,7.5,1.5,10.5
	c0,1.9,0.8,3,2.2,3c2.3,0,3-3.4,3-6c0-2.3,0.8-14.3,1.5-20.6c0.7-10.5,2.6-15.8,2.6-17.6c0-1.9-0.8-2.6-1.9-2.6
	c-1.1,0-2.6,1.9-4.9,4.1c-3.4,3.4-8.2,3.8-16.1,4.5c-7.5,0.8-51,0.8-55.1,0.8c-1.9,0-1.9-1.1-1.9-3.4v-86.6c0-2.2,0.4-3.4,1.9-3.4
	c3.8,0,42,0.4,47.6,1.1c18,2.2,21.4,4.5,23.6,9.8c1.5,3.7,1.9,9,1.9,11.2c0,2.6,0.7,4.1,2.6,4.1c1.5,0,2.6-1.9,3-3.4
	c0.7-3.7,1.5-18,1.9-21c0.8-9,2.6-12.8,2.6-15c0-1.5-0.4-3-1.5-3c-1.5,0-3,1.1-4.5,1.5c-2.6,0.4-8.6,1.5-15,1.9
	c-7.5,0.4-76.5,0-78.8,0c-1.9,0-23.2-0.7-38.2-0.7c-3.8,0-5.2,0.7-5.2,2.6c0,1.1,1.5,2.6,2.6,2.6c3,0,8.6,0.4,11.3,0.7
	c10.9,1.5,12.7,6.8,13.5,17.6c0.8,10.1,0.8,19.1,0.8,68.6v56.3c0,30.8,0,55.9-1.9,69c-1.5,9.4-2.2,15.8-8.6,16.9
	c-3,0.4-7.1,1.5-10.1,1.5c-1.9,0-2.6,1.5-2.6,2.6c0,1.9,1.9,2.6,5.2,2.6c5.3,0,12.7-0.4,19.1-0.7c7.1-0.4,13.5-0.4,14.2-0.4
	c4.9,0,13.5,0,27.4,0.7c13.5,0.4,32.6,1.1,57.4,1.1c12.7,0,16.1,0,18.4-8.3c1.9-6.8,4.5-28.5,4.5-30.8
	C4556.1,355.6,4555.7,353,4553.9,353z M2055.3,396.1c3.8,0,6.8-1.1,6.8-3c0-1.5-1.1-2.3-2.6-2.3c-3.4,0-12,0-21.4-3
	c-13.5-4.5-15.7-21.7-16.9-33l-22.5-195.8c-0.8-6-2.6-8.6-4.9-8.6c-2.2,0-3.8,2.2-5.3,5.2l-96,197.6l-99.8-198
	c-1.9-3.8-4.5-4.9-6.7-4.9c-1.9,0-3.4,2.2-3.7,5.6l-24,208.1c-1.5,12-1.9,23.6-12.8,25.5c-4.9,0.8-7.1,1.1-9.8,1.1
	c-1.9,0-3.4,1.1-3.4,2.3c0,2.3,2.3,3,5.6,3c9,0,24.8-1.1,27.8-1.1c2.6,0,18.4,1.1,30.7,1.1c3.7,0,6-0.7,6-3c0-1.1-1.5-2.3-2.6-2.3
	c-2.3,0-7.1-0.4-12.8-1.9c-4.9-1.1-7.9-4.1-7.9-9c0-5.3,0-11.3,0.4-16.1l12.8-144h1.5c5.6,13.1,32.2,66.8,42,87
	c8.3,17.3,30,58.1,38.6,73.9c6.4,11.6,8.2,14.6,11.3,14.6c3,0,4.9-3,11.6-16.9l79.5-162.7h0.8l15.8,161.2c0.8,6,0.4,10.9-1.5,11.3
	c-1.5,0.4-2.2,1.5-2.2,2.6c0,1.5,1.5,2.6,9.4,3.4C2011,395.4,2047.8,396.1,2055.3,396.1z M5339,366.1
	c36.7,31.1,83.6,34.1,108.7,34.1c19.1,0,49.1-3.4,70.1-14.2c4.1-2.3,4.5-2.6,4.5-17.3v-35.6c0-13.5,0-22.9,0.4-33
	c0.8-11.3,3.4-16.1,12.4-17.6c3.8-0.7,6-0.7,8.2-0.7c1.1,0,2.6-1.5,2.6-2.6c0-2.3-1.5-2.6-5.2-2.6c-10.1,0-30.7,0.8-32.2,0.8
	c-1.9,0-24-0.8-39-0.8c-3.7,0-5.2,0.4-5.2,2.6c0,1.1,1.5,2.6,2.6,2.6c3,0,8.6,0.4,11.2,0.7c13.5,2.6,14.3,6.4,14.3,32.3v55.1
	c0,6-2.6,7.5-6.7,9.8c-8.6,4.9-24,6-35.6,6c-30.4,0-58.1-9-84.4-33.4c-11.6-10.9-34.9-43.1-34.9-88.1c0-37.1,13.5-65.6,32.6-80.3
	c25.1-19.1,49.1-20.6,69-20.6c42.8,0,67.9,12.7,76.1,24.8c5.3,7.5,7.1,16.9,7.5,21c0,3,0.4,4.9,2.3,4.9c2.3,0,3.7-1.5,3.7-6.7
	c0-31.9,1.9-40.5,1.9-45c0-1.5-0.8-3-4.1-3c-8.2,0-19.9-1.9-26.6-3.4c-6.4-1.5-29.6-5.2-50.6-5.2c-25.1,0-58.1,2.2-87.8,20.2
	c-29.3,17.6-55.1,53.6-55.1,104.6C5299.6,315.1,5318.7,349.2,5339,366.1z M2318,160.2c2.3,0,6.4,0.4,10.1,1.1
	c7.1,1.5,9.7,6.4,10.5,17.3c0.7,10.1,0.7,19.1,0.7,68.6v56.3c0,30.8-0.4,55.9-1.9,69c-1.1,9.4-2.2,15.4-8.6,16.9
	c-3,0.8-7.1,1.5-10.1,1.5c-1.9,0-2.6,1.5-2.6,2.6c0,1.9,1.9,2.6,5.3,2.6c10.1,0,30.7-1.1,32.6-1.1c1.5,0,22.9,1.1,41.2,1.1
	c3.8,0,5.3-1.1,5.3-2.6c0-1.1-0.8-2.6-2.6-2.6c-3,0-10.1-0.7-15-1.5c-9.8-1.5-10.9-7.5-12-16.9c-1.5-13.1-1.5-38.2-1.5-69v-56.3
	c0-49.5,0-58.5,0.4-68.6c0.8-11.3,2.6-15.8,11.6-17.6c3.8-0.7,6-0.7,8.2-0.7c1.1,0,2.6-1.5,2.6-2.6c0-1.9-1.5-2.6-5.2-2.6
	c-10.1,0-31.5,0.7-33,0.7c-1.9,0-22.5-0.7-33.4-0.7c-3.8,0-5.3,0.7-5.3,2.6C2315.4,158.7,2316.5,160.2,2318,160.2z M2675.8,393.5
	c0-1.9-2.2-2.6-4.1-2.6c-3.4,0-8.2-0.4-13.1-1.9c-7.1-2.2-16.1-6.4-28.1-34.9c-20.2-48.4-73.1-180-79.1-193.5
	c-3.4-7.1-4.5-11.6-7.9-11.6c-2.3,0-3.8,1.9-7.9,12.4l-77.6,199.5c-6.4,16.1-12.7,27.4-27.8,29.3c-2.6,0.4-7.5,0.7-9.7,0.7
	c-1.5,0-3,1.1-3,2.6c0,1.9,2.3,2.6,6.4,2.6c13.5,0,30-1.1,33.4-1.1c3.8,0,21.8,1.1,29.6,1.1c3,0,4.9-0.7,4.9-2.6
	c0-1.5-0.8-2.6-3.4-2.6h-3c-5.6,0-11.3-2.2-11.3-8.6c0-5.6,1.9-13.5,4.9-21.4l18.8-51c0.7-1.9,1.9-2.6,3.4-2.6h76.1
	c1.9,0,2.3,0.4,3,1.9l29.6,73.1c2.2,5.2-1.1,7.9-3,8.6c-1.5,0.8-2.2,0.8-2.2,2.3c0,1.9,5.2,1.9,11.6,2.3c22.9,0.7,47.3,0.7,52.1,0.7
	C2672,396.1,2675.8,395.4,2675.8,393.5z M2572.3,294.1h-66.8c-1.1,0-1.5-0.7-1.1-2.3l30.8-87.4c1.9-4.9,3.7-4.9,5.6,0l32.6,87.4
	C2573.8,293.4,2573.8,294.1,2572.3,294.1z M3500.6,366.1c36.8,31.1,83.6,34.1,108.8,34.1c19.1,0,49.1-3.4,70.1-14.2
	c4.1-2.3,4.5-2.6,4.5-17.3v-35.6c0-13.5,0-22.9,0.4-33c0.8-11.3,3.4-16.1,12.4-17.6c3.8-0.7,6-0.7,8.2-0.7c1.1,0,2.6-1.5,2.6-2.6
	c0-2.3-1.5-2.6-5.2-2.6c-10.1,0-30.8,0.8-32.3,0.8c-1.9,0-24-0.8-39-0.8c-3.7,0-5.2,0.4-5.2,2.6c0,1.1,1.5,2.6,2.6,2.6
	c3,0,8.6,0.4,11.3,0.7c13.5,2.6,14.3,6.4,14.3,32.3v55.1c0,6-2.6,7.5-6.8,9.8c-8.6,4.9-24,6-35.6,6c-30.4,0-58.1-9-84.4-33.4
	c-11.6-10.9-34.9-43.1-34.9-88.1c0-37.1,13.5-65.6,32.6-80.3c25.1-19.1,49.1-20.6,69-20.6c42.7,0,67.9,12.7,76.1,24.8
	c5.3,7.5,7.1,16.9,7.5,21c0,3,0.4,4.9,2.2,4.9c2.3,0,3.8-1.5,3.8-6.7c0-31.9,1.9-40.5,1.9-45c0-1.5-0.7-3-4.1-3
	c-8.3,0-19.9-1.9-26.6-3.4c-6.4-1.5-29.6-5.2-50.6-5.2c-25.1,0-58.1,2.2-87.8,20.2c-29.2,17.6-55.1,53.6-55.1,104.6
	C3461.2,315.1,3480.4,349.2,3500.6,366.1z M2268.6,326c0-36-33-58.9-58.1-66.4c16.9-15,33.4-30.7,33.4-55.9
	c0-16.9-14.3-48.8-69.4-48.8c-15.4,0-30.7,0.7-38.6,0.7c-1.9,0-23.2-0.7-38.2-0.7c-3.8,0-5.2,0.7-5.2,2.6c0,1.1,1.5,1.9,2.6,1.9
	c3,0,8.6,0.4,11.3,0.8c10.9,1.5,12.8,7.5,13.5,18.4c0.7,10.1,0.7,19.1,0.7,68.6v56.3c0,30.8,0,55.9-1.9,69
	c-1.5,9.4-2.2,16.5-8.6,17.6c-3,0.4-7.1,1.5-10.1,1.5c-1.9,0-2.6,0.8-2.6,1.9c0,1.9,1.9,2.6,5.2,2.6c5.3,0,13.1-0.4,19.9-0.7
	c6.8,0,12.8-0.4,13.5-0.4c1.5,0,10.9,0.4,21.4,0.7c10.5,0.7,22.5,1.1,28.5,1.1C2242,396.9,2268.6,361.6,2268.6,326z M2148.9,170
	c0-1.9,1.1-2.6,4.1-3.4c5.3-1.1,13.1-1.5,16.9-1.5c33,0,46.5,27,46.5,51.4c0,15.4-5.6,26.3-12.7,34.1c-6.8,7.5-13.9,8.2-32.3,8.2
	c-12.4,0-18.4-1.1-20.3-1.5c-1.5-0.4-2.2-1.1-2.2-3.4V170z M2189.5,385.6c-6,0-19.9-0.4-28.9-4.5c-10.1-4.9-10.1-8.6-11.2-24
	c-0.4-4.9-0.4-43.1-0.4-67.9v-17.6c0-1.5,0.8-2.2,1.9-2.2c5.3,0,21.8,0,25.9,0.8c7.9,1.5,18.4,1.1,29.6,8.2
	c25.9,16.5,31.5,43.9,31.5,58.1C2237.8,377.4,2211.2,385.6,2189.5,385.6z M3964.8,390.9c-3,0-10.5-0.4-16.5-1.9
	c-9-2.2-12-10.1-12.7-36.4l-3.8-150.4c10.1,11.3,47.2,50.3,85.5,90.4c34.9,36.4,82.5,83.3,85.9,86.2c18.4,16.9,21.8,19.5,25.1,19.5
	c2.3,0,2.6-1.9,2.6-22.9l0.8-186.8c0-19.1,0.7-25.5,11.6-27.8c3.8-0.7,6.4-0.7,7.9-0.7c2.2,0,3.7-1.9,3.7-3c0-1.9-2.6-2.3-6-2.3
	c-13.5,0-24.4,0.7-28.1,0.7c-3.8,0-19.5-0.7-34.5-0.7c-3.7,0-6.4,0.4-6.4,2.3c0,1.1,0.4,3,2.6,3c2.6,0,10.1,0.4,16.1,1.5
	c10.1,1.9,12,9,12.4,29.6l3.4,159.8c-10.1-10.5-45.4-48.4-78-82.1c-51-52.5-99-103.5-104.3-108.8c-3.4-3.4-9-9.7-12.8-9.7
	c-2.6,0-4.5,3.4-4.5,16.1v182.6c0,28.9-1.1,37.5-9.4,39.7c-4.9,1.5-10.9,1.9-13.5,1.9c-1.5,0-2.6,1.1-2.6,2.6c0,2.2,1.9,2.6,5.3,2.6
	c15,0,28.9-1.1,31.9-1.1c3,0,16.1,1.1,34.9,1.1c3.7,0,6-0.7,6-2.6C3967.4,392,3966.3,390.9,3964.8,390.9z M3839.2,396.1
	c3.8,0,5.3-1.1,5.3-2.6c0-1.1-0.8-2.6-2.6-2.6c-3,0-10.1-0.7-15-1.5c-9.8-1.5-10.9-7.5-12-16.9c-1.5-13.1-1.5-38.2-1.5-69v-56.3
	c0-49.5,0-58.5,0.4-68.6c0.8-11.3,2.6-15.8,11.6-17.6c3.8-0.7,6-0.7,8.3-0.7c1.1,0,2.6-1.5,2.6-2.6c0-1.9-1.5-2.6-5.2-2.6
	c-10.1,0-31.5,0.7-33,0.7c-1.9,0-22.5-0.7-33.4-0.7c-3.7,0-5.2,0.7-5.2,2.6c0,1.1,1.1,2.6,2.6,2.6c2.2,0,6.4,0.4,10.1,1.1
	c7.1,1.5,9.7,6.4,10.5,17.3c0.8,10.1,0.8,19.1,0.8,68.6v56.3c0,30.8-0.4,55.9-1.9,69c-1.1,9.4-2.3,15.4-8.6,16.9
	c-3,0.8-7.1,1.5-10.1,1.5c-1.9,0-2.6,1.5-2.6,2.6c0,1.9,1.9,2.6,5.2,2.6c10.1,0,30.8-1.1,32.6-1.1
	C3799.4,395,3820.8,396.1,3839.2,396.1z M1237.5,270.1c0-74.3-56.2-119.6-130.5-119.6c-91.1,0-130.9,73.1-130.9,124.5
	c0,57.4,38.6,125.3,129,125.3C1184.6,400.2,1237.5,341.4,1237.5,270.1z M1010.2,266.4c0-69.4,39.8-103.9,94.9-103.9
	c52.1,0,98.6,40.1,98.6,116.6c0,92.3-59.6,108-89.3,108C1054.9,387.1,1010.2,340.6,1010.2,266.4z M4345,388.6
	c1.9-6.8,4.5-28.5,4.5-30.8c0-2.2-0.4-4.9-2.2-4.9s-2.6,1.1-3.4,4.9c-1.9,12.8-6.4,18.4-15,22.1c-8.6,3.4-24.4,3.4-33,3.4
	c-32.6,0-38.6-4.1-39.4-25.5c-0.4-6.4,0-43.5,0-54.4v-26.6c0-1.1,0.4-2.2,2.2-2.2c5.6,0,40.9,0.4,49.9,1.5
	c12.7,1.5,15.7,5.3,16.9,9.8c1.5,4.1,1.5,7.5,1.5,10.5c0,1.9,0.7,3,2.3,3c2.3,0,3-3.4,3-6c0-2.3,0.8-14.3,1.5-20.6
	c0.8-10.5,2.6-15.8,2.6-17.6c0-1.9-0.8-2.6-1.9-2.6s-2.6,1.9-4.9,4.1c-3.4,3.4-8.2,3.8-16.1,4.5c-7.5,0.8-51,0.8-55.1,0.8
	c-1.9,0-1.9-1.1-1.9-3.4v-86.6c0-2.2,0.4-3.4,1.9-3.4c3.8,0,42,0.4,47.6,1.1c18,2.2,21.4,4.5,23.6,9.8c1.5,3.7,1.9,9,1.9,11.2
	c0,2.6,0.7,4.1,2.6,4.1c1.5,0,2.6-1.9,3-3.4c0.7-3.7,1.5-18,1.9-21c0.8-9,2.6-12.8,2.6-15c0-1.5-0.4-3-1.5-3c-1.5,0-3,1.1-4.5,1.5
	c-2.6,0.4-8.6,1.5-15,1.9c-7.5,0.4-76.5,0-78.8,0c-1.9,0-23.2-0.7-38.2-0.7c-3.8,0-5.2,0.7-5.2,2.6c0,1.1,1.5,2.6,2.6,2.6
	c3,0,8.6,0.4,11.3,0.7c10.9,1.5,12.8,6.8,13.5,17.6c0.7,10.1,0.7,19.1,0.7,68.6v56.3c0,30.8,0,55.9-1.9,69
	c-1.5,9.4-2.3,15.8-8.6,16.9c-3,0.4-7.1,1.5-10.1,1.5c-1.9,0-2.6,1.5-2.6,2.6c0,1.9,1.9,2.6,5.3,2.6c5.2,0,12.7-0.4,19.1-0.7
	c7.1-0.4,13.5-0.4,14.2-0.4c4.9,0,13.5,0,27.4,0.7c13.5,0.4,32.6,1.1,57.4,1.1C4339.4,396.9,4342.8,396.9,4345,388.6z M928.2,381.9
	c3.7-12.8,8.2-45.4,8.2-48c0-3-0.7-5.6-2.6-5.6c-2.2,0-3,1.5-3.7,5.6c-1.1,6.7-6,23.2-13.9,31.5c-15,15.4-37.1,18.8-65.3,18.8
	c-80.3,0-135.4-65.6-135.4-137.3c0-38.3,6.4-71.6,33.7-97.9c13.1-12.8,36.4-27.4,86.3-27.4c33,0,61.9,10.1,75,21.4
	c9.8,8.2,15.7,23.6,15.7,38.3c0,5.3,0.4,7.9,3,7.9c2.3,0,3-2.2,3.4-7.9c0.4-5.6,0.4-26.2,1.1-38.6c0.8-13.5,1.9-18,1.9-21
	c0-2.2-0.8-3.7-4.9-4.1c-12-0.8-24-3-38.3-5.6c-18.4-3.4-39.4-4.5-54.4-4.5c-57.8,0-91.9,17.6-114.4,40.1
	c-33.4,33.4-42,77.3-42,102.4c0,35.6,9,78.4,45.4,111c29.6,26.6,67.5,40.5,123.8,40.5c24,0,52.5-2.6,67.5-8.6
	C925.2,389.7,925.9,389,928.2,381.9z M4752.6,342.9c18.8,24,30.8,39.4,45,46.9c8.3,4.5,16.5,6.4,35.3,6.4h20.6c6,0,7.9-0.7,7.9-2.6
	c0-1.1-1.1-2.6-3-2.6c-1.9,0-5.2,0-11.6-1.1c-8.3-1.1-19.1-4.1-36.7-22.1c-19.1-19.9-42-48.7-69-82.5c30.8-26.2,40.5-49.1,40.5-72.7
	c0-22.1-14.6-37.5-22.9-43.5c-17.3-12-40.5-13.9-61.5-13.9c-10.1,0-37.9,0.7-41.2,0.7c-1.9,0-24-0.7-39-0.7c-3.7,0-5.2,0.7-5.2,2.6
	c0,1.1,1.5,2.6,2.6,2.6c3,0,8.6,0.4,11.2,0.7c10.9,1.5,12.8,6.8,13.5,17.6c0.7,10.1,0.7,19.1,0.7,68.6v56.3c0,30.8,0,55.9-1.9,69
	c-1.5,9.4-2.3,15.4-8.6,16.9c-3,0.8-7.1,1.5-10.1,1.5c-1.9,0-2.6,1.5-2.6,2.6c0,1.9,1.9,2.6,5.3,2.6c10.1,0,32.2-1.1,32.6-1.1
	c1.5,0,22.5,1.1,40.5,1.1c3.7,0,5.2-1.1,5.2-2.6c0-1.1-0.4-2.6-2.6-2.6c-3,0-10.1-0.7-14.6-1.5c-10.1-1.5-12-7.5-13.1-16.9
	c-1.5-13.1-1.5-37.9-1.5-68.6v-7.5c0-1.9,0.8-2.6,2.3-2.6l42,0.8c2.2,0,3,0.4,4.5,1.9C4724.1,305,4738.7,325.6,4752.6,342.9z
	 M4706.8,283.2c-14.6,0-31.5-2.3-36.4-4.9c-1.5-1.1-2.3-2.2-2.3-4.1V171.8c0-1.9,1.1-3,2.6-3.7c3.4-0.8,13.9-1.9,23.6-1.9
	c35.3,0,57,22.9,57,62.6c0,24.4-8.6,41.3-19.9,48.8C4723.7,282.8,4714.7,283.2,4706.8,283.2z M3735.8,546c5.3,0,10.3-3.2,10.3-10.1
	c0-5.5-3.8-10.1-9.7-10.1c-5.7,0-10.7,4-10.7,10.5C3725.7,541.6,3729.7,546,3735.8,546z M1911.9,590.1h22.4c1.8-1.2,2.2-6.5-0.2-8.3
	h-22c-3.4,0-3.6-0.2-3.6-3.8v-8.9c-0.8-1.4-3.2-1.4-4.2-1c-2,4-5.7,9.3-8.3,11.7c-2,1.8-6.9,4.4-12.7,6.1c-0.8,1.2-0.6,3.4,0.6,4.2
	h5.5c4,0,4.2,0.4,4.2,5.7v45.3c0,11.9,3.6,21.4,20.6,21.4c10.1,0,17.2-5,20.8-9.1c0.4-1.2-0.4-3.4-2-3.4c-0.6,0-3.2,2.2-5,2.8
	c-1.6,0.6-3.4,1-5.3,1c-13.1,0-14.5-10.5-14.5-22v-37C1908.3,590.7,1908.5,590.1,1911.9,590.1z M1982.8,655.5l-4.2-0.6
	c-7.1-1-7.5-3-7.5-17.2V602c0-8.1,0.4-17.6,0.8-24.6c-0.2-0.8-1-1.2-2-1.2c-4.6,3-15.8,8.1-20.4,9.7c-1,0.6-1,2.8-0.2,3.6l1.8,1.2
	c5.3,3.6,5.3,4.6,5.3,12.3v34.6c0,14.3-0.2,16.2-7.5,17.2l-4.2,0.6c-1.4,1-1,4.3,0.4,4.9c5.5-0.4,11.5-0.6,18.6-0.6
	c6.9,0,12.7,0.2,18.6,0.6C1983.8,659.8,1984.2,656.5,1982.8,655.5z M1876.5,651.3c-0.6,0-1.6,0.8-2.6,1.4c-1.2,0.6-3,1.2-4.9,1.2
	c-7.7,0-9.5-8.1-9.1-17.2l1.2-34.4c0.6-14.8-6.3-23.2-20.6-23.2c-14.5,0-36.8,14.1-36.8,24.3c0,1.8,1,2.8,2.8,2.8
	c3,0,8.3-1.4,11.3-3.8c1.6-1.2,1.8-3.6,2-6.7c0.4-6.1,7.1-8.9,12.7-8.9c12.3,0,14.6,9.9,14.5,17.2l-0.2,9.1c-0.2,3-0.4,4.7-3.4,5.7
	l-23.6,8.5c-12.7,4.6-16.4,9.1-16.4,16.8c0,5.5,2.4,10.5,6.1,13.9c3.4,3,8.1,4.6,13.9,4.6c5.5,0,9.9-2.6,14.3-5c4-2.2,6.3-4,7.7-4
	c1.2,0,2.4,1.6,3.2,2.8c3.4,4.4,8.1,6.1,12.9,6.1c9.7,0,16.6-7.7,16.6-8.7C1877.9,652.5,1877.3,651.3,1876.5,651.3z M1845.6,639.4
	c0,4.2-0.2,6.9-2.6,9.3c-2,2-8.1,4.9-12.1,4.9c-10.1,0-12.5-8.5-12.5-11.9c0-7.7,5.7-10.7,17.4-14.6c3.6-1.2,6.9-2,8.1-2
	s2,0.4,2,2.6L1845.6,639.4z M910.2,655.5l-5.3-0.6c-7.1-0.8-7.5-3-7.5-17.2v-33.1c0-13.9-6.7-25.5-25.5-25.5
	c-10.1,0-19.6,4.7-26.7,10.3c-0.6-0.4-0.8-2-0.8-3.8V544c0-8.7,0.4-18.6,0.6-24.6c-0.4-0.8-1.2-1.2-2-1.2
	c-7.1,3.8-16.4,6.7-21.4,8.3c-1,0.6-1,3.4,0,4l2,1.2c5.9,3.6,6.1,4.8,6.1,16.4v89.5c0,14.3-0.2,16.4-7.5,17.2l-5,0.6
	c-1.4,1-1,4.3,0.4,4.9c6.3-0.4,12.3-0.6,19.4-0.6c6.9,0,12.7,0.2,18.6,0.6c1.4-0.6,1.8-4.2,0.4-4.9l-4.2-0.6c-7.1-1-7.5-3-7.5-17.2
	v-33.3c0-6.9,0.6-7.9,4.2-10.9c3.6-3,8.7-5.3,15.4-5.3c12.7,0,18.8,8.5,18.8,21.2v28.3c0,14.3-0.2,16-7.5,17.2l-4,0.6
	c-1.4,1-1,4.3,0.4,4.9c5.3-0.4,11.3-0.6,18.4-0.6c6.9,0,12.7,0.2,19.8,0.6C911.2,659.8,911.6,656.5,910.2,655.5z M1972.7,538.9
	c0-5.5-3.8-10.1-9.7-10.1c-5.7,0-10.7,4-10.7,10.5c0,5.3,4,9.7,10.1,9.7C1967.7,549,1972.7,545.8,1972.7,538.9z M806.7,523.6
	c-3,5.1-4.8,5.5-15.4,5.5h-80.2c-9.1,0-15.6,0.2-16.8-6.1c-0.6-0.6-3.2-0.4-3.8,0c-1.4,7.9-4.4,20.6-7.5,29.5
	c0.8,1.6,3.6,2.6,5.1,1.4c2.2-4.9,4.2-9.3,8.9-13.7c5-4.6,15.8-5,24.3-5h10.9c5.9,0,5.9,0.2,5.9,6.3v88.5c0,20.8-1,23.8-12.3,24.7
	l-7.1,0.6c-1.6,1-1.2,4.3,0,4.9c12.7-0.4,19.6-0.6,27.5-0.6c7.9,0,14.6,0.2,25.9,0.6c1.2-0.6,1.6-4.2,0.4-4.9l-6.3-0.6
	c-11.5-1.2-11.9-4-11.9-24.7V542c0-6.5-0.2-6.7,5.7-6.7h14.1c10.9,0,18.4,1.6,23,5c3,2.2,4.4,9.5,4.9,14.5c1,1.2,4.4,1.2,5.1-0.4
	c-0.6-5.9,0.8-22,3-30.1C809.9,523.4,807.7,523.2,806.7,523.6z M1234.5,652.5c-5.5,0-6.1-5.9-6.1-21.6v-33.3
	c0-7.3,0.2-13.5,0.6-17.2c-0.2-0.8-0.8-1.2-1.8-1.4c-4.4,2-15.2,3.4-23.2,3.6c-1.6,0.8-1.6,3.6-0.2,4.3l2.6,1
	c5.9,2.4,7.3,2.8,7.3,15.6v32.5c0,6.1-1.4,9.1-4,11.5c-4.4,3.8-10.7,5.9-16,5.9c-15,0-18.4-9.1-18.4-22.8v-33.1
	c0-9.7,0.2-13.9,0.6-17.2c-0.2-0.8-0.8-1.2-2-1.4c-4.4,1.6-12.1,3.4-21.2,3.6c-1.4,0.6-1.6,3.4-0.4,4.3l2.4,1
	c5.9,2.6,5.9,4.4,5.9,16.8v33.1c0,16,6.5,24.8,24,24.8c11.7,0,21.4-6.5,27.3-10.3c1.2,0,1.8,1,1.8,2.8v8.1c0.4,0.8,1.4,1.4,2.4,1.4
	c6.7-3.8,18.2-5.7,25.9-7.3c1.6-0.8,1.4-4.7,0.2-5.7C1239.4,652.1,1236.9,652.5,1234.5,652.5z M103.6,563.7H499v-33.6H103.6V563.7z
	 M1443.2,579.1c-23.4,0-42.2,17.8-42.2,42.8c0,24.7,17.8,40.8,40.6,40.8c24.7,0,41.8-17.8,41.8-42.6
	C1483.3,595.7,1465.3,579.1,1443.2,579.1z M1443.6,656.7c-17.4,0-25.5-19.4-25.5-37.4c0-21.8,9.7-34.2,22.8-34.2
	c18.8,0,25.5,21.4,25.5,38.2C1466.3,638.4,1461,656.7,1443.6,656.7z M1112.2,529.2h-36.4c-7.9,0-14.7-0.2-23-0.6
	c-1.2,0.6-1.6,4.2-0.4,4.9l3.2,0.4c11.5,1.4,11.9,4.2,11.9,24.9v71.3c0,20.8-0.4,23.4-11.9,24.7l-5,0.6c-1.2,1.2-0.8,4.3,0.4,4.9
	c9.3-0.4,16-0.6,24.7-0.6c7.9,0,14.6,0.2,26.3,0.6c1.2-0.6,1.6-4.2,0.4-4.9l-6.7-0.6c-11.7-1-12.1-4-12.1-24.7v-27.5
	c0-5.1,0.6-5.3,6.5-5.3h13.5c7.5,0,12.5,0.2,15.2,1c3.8,1.2,5.5,4,6.3,7.5l2,7.7c1.4,1.2,4.4,1.2,5.2,0c0-4.6-0.8-12.1-0.8-19.2
	c0-7.3,0.8-15.2,0.8-20c-0.8-1.2-4.2-1.2-5.2,0l-1.8,7.9c-1.2,5.1-2.8,6.1-5,6.9c-2.4,0.8-8.7,1.2-16.8,1.2h-13.5
	c-5.9,0-6.5,0-6.5-5.3v-41.8c0-7.5,0-7.9,5.9-7.9h12.1c8.3,0,14.8,0.2,19.2,1.2c9.9,2.8,12.3,9.9,13.9,18.8c1.4,1.2,4.2,0.6,4.7-0.6
	c-0.4-7.5-0.6-17-0.6-26.1C1136.3,529.2,1124.8,529.2,1112.2,529.2z M123.4,208.7c11.4-5.8,22.4-11.8,31.6-16.6
	c21.9-10.9,57.7-29.1,72.8-42.6c4.5-4,10.4-11.2,2.8-26c-0.4-0.8-4.9-9.5-9.4-18.4c-4.5-8.9-8.8-17.6-9.3-18.4
	c-7.5-14.9-16.8-14.3-22.6-13.1c-19.8,4.2-55.6,22.3-77.4,33.6c-9.3,4.5-20.7,9.8-32.1,15.6l-35,71.8h0l0,0L123.4,208.7z M494.2,245
	c-55.9-4.5-104.1,25.4-158.3,35c-4.3,0.8-10.2-8.5-15.4-13.7c25.1-19,21.7-56.1-7.4-72.1c-2-2.3-1.3-23.7-0.1-24.6
	c2.4-2,20.9,1.6,23.6-0.7c2.6-2.3,2.1-24.6,0.4-26.7c-1.7-2.1-22.6,0.2-23.8-1.3c-1.2-1.4,0.6-21.5-1.4-23
	c-1.4-1.1-7.2-1.3-10.4-1.2c-3.2,0-9,0.1-10.4,1.2c-2,1.6-0.2,21.6-1.4,23c-1.2,1.4-22.1-0.8-23.8,1.3c-1.7,2.1-2.2,24.4,0.4,26.7
	c2.6,2.3,21.2-1.3,23.6,0.7c1.2,1,1.9,22.3-0.1,24.6c-29.1,16-32.5,53.2-7.4,72.1c-5.3,5.3-11.1,14.5-15.4,13.7
	c-54.2-9.6-102.4-39.5-158.3-35c-31.3,2.5-56.8,24.5-62.2,56.2c-9.8,56.9,31.1,100.7,51,149.1c6.3,15.3,11.8,35.8,10.8,53.4
	c0,0,162.4,0,191.2,0c0,0,0.8,0,2.2,0c1.4,0,2.2,0,2.2,0c28.8,0,191.1,0,191.1,0c-1-17.6,4.5-38.2,10.8-53.4
	c19.9-48.3,60.8-92.1,51-149.1C551,269.5,525.5,247.5,494.2,245z M278.2,427.3c-5,28.6-20.9,46.7-34.1,46.8
	c-8.7,0-15.6-3.2-21.9-8.8c-8.7-7.6-15.8-20.2-13.5-27.6c1.9-2.5,25.4,1.1,27-1.2c1.7-2.3-2.9-20.6-5.5-22.9
	c-2.7-2.4-23.8,0.8-26.6-1.5c-2.8-2.3-5.5-24.9-8.4-26.3c0,0-22.4-3.3-24-0.1c-1.6,3.2,7.6,22.1,6,25.3c-1.6,3.2-31.2-2.8-31.7,0.5
	c-0.5,3.3,1.7,20,4.5,22.4c2.8,2.5,30.5,2.6,30.5,2.6c5.7,4.4,7.3,13.3,7.3,22.4c0.1,11.6-9,17.6-23.3,13.5
	c-26.8-7.5-60-65.6-79.7-105.8c-14.5-29.6-23.2-78,14.8-92.5c23.2-8.8,47.5-3.8,72.4,3.6c26.1,7.7,60.6,18.2,80.9,30.9
	c5,3.1-5.9,0.6,12.1,40.6C273.3,367.7,281.7,407.3,278.2,427.3z M518,366.6c-19.7,40.2-52.9,98.4-79.7,105.8
	c-14.4,4-23.4-2-23.3-13.5c0-9.1,1.5-18,7.3-22.4c0,0,27.7-0.2,30.5-2.6c2.8-2.4,5.1-19.1,4.5-22.4c-0.5-3.3-30.2,2.7-31.7-0.5
	c-1.6-3.2,7.6-22.1,6-25.3c-1.6-3.2-24,0.1-24,0.1c-2.9,1.4-5.5,24-8.3,26.3c-2.8,2.3-24-0.8-26.7,1.5c-2.7,2.4-7.2,20.6-5.5,22.9
	c1.7,2.3,25.1-1.2,27.1,1.2c2.3,7.4-4.8,19.9-13.5,27.6c-6.3,5.5-13.3,8.8-21.9,8.8c-13.2-0.1-29.1-18.3-34.1-46.8
	c-3.5-20,4.9-59.6,13.3-78.1c18-40,7.1-37.5,12.1-40.6c20.3-12.6,54.8-23.1,80.9-30.9c24.9-7.4,49.2-12.4,72.4-3.6
	C541.2,288.6,532.5,337,518,366.6z M985.7,641.8c-6.1,7.7-11.7,9.7-18.2,9.7c-21.2,0-32.9-17-32.9-37c0-5,0.2-5.3,5.3-5.3h36.6
	c8.3,0,11.1-0.2,11.7-1.4c0.4-0.8,0.8-2.4,0.8-5.1c0-11.9-11.1-23.6-28.1-23.6c-23.8,0-39.8,20.4-39.8,44.7c0,8.7,2.4,18,8.3,25.7
	c5.7,7.5,15.8,13.1,28.7,13.1c10.3,0,24.5-5,31.1-18.4C989,642.4,987.6,641.2,985.7,641.8z M958.7,585c11.5,0,15.2,6.9,15.2,12.5
	c0,2.6-0.6,3.4-1.2,3.8c-1.6,1.2-5.9,2-20.6,2h-14.1c-1.4,0-1.4-0.6-1.4-1C937,595.7,947.1,585,958.7,585z M1580.9,652.5
	c-5.5,0-6.1-5.9-6.1-21.6v-33.3c0-7.3,0.2-13.5,0.6-17.2c-0.2-0.8-0.8-1.2-1.8-1.4c-4.4,2-15.2,3.4-23.2,3.6
	c-1.6,0.8-1.6,3.6-0.2,4.3l2.6,1c5.9,2.4,7.3,2.8,7.3,15.6v32.5c0,6.1-1.4,9.1-4,11.5c-4.4,3.8-10.7,5.9-16,5.9
	c-15,0-18.4-9.1-18.4-22.8v-33.1c0-9.7,0.2-13.9,0.6-17.2c-0.2-0.8-0.8-1.2-2-1.4c-4.4,1.6-12.1,3.4-21.2,3.6
	c-1.4,0.6-1.6,3.4-0.4,4.3l2.4,1c5.9,2.6,5.9,4.4,5.9,16.8v33.1c0,16,6.5,24.8,24,24.8c11.7,0,21.4-6.5,27.3-10.3
	c1.2,0,1.8,1,1.8,2.8v8.1c0.4,0.8,1.4,1.4,2.4,1.4c6.7-3.8,18.2-5.7,25.9-7.3c1.6-0.8,1.4-4.7,0.2-5.7
	C1585.9,652.1,1583.3,652.5,1580.9,652.5z M95.7,103.9c3.1-1.5,6.2-2.9,9-4.3c9.3-4.8,21-10.8,33-16.5c-2-3.1-4-6.1-5.1-7.4
	c-2.3-2.6-6.4-6.2-14.1-2c-0.4,0.2-4.9,2.7-9.5,5.1c-4.6,2.4-9.2,4.8-9.6,5c-7.7,4.1-7.1,9.4-6.2,12.8
	C93.6,98.1,94.6,100.9,95.7,103.9z M1690.6,655.5l-4.4-0.6c-7.1-1-7.5-3-7.5-17.2v-34c0-13.3-6.7-24.5-23.2-24.5
	c-10.1,0-19.4,5-27.7,10.1c-1.4,0-2.2-1-2.2-2.2c0-1.8,0-4.7,0.4-9.3c-0.4-1-1.4-1.4-2.2-1.4c-4,3-15.2,8.1-19.8,9.7
	c-1,0.6-1,2.8-0.2,3.6l1.8,1.2c5.3,3.6,5.3,4.6,5.3,12.3v34.6c0,14.3-0.2,16.2-7.5,17.2l-4.2,0.6c-1.4,1-1,4.3,0.4,4.9
	c5.5-0.4,11.5-0.6,18.6-0.6c6.9,0,12.7,0.2,18,0.6c1.4-0.6,1.8-4,0.4-4.9l-3.6-0.6c-7.1-1.2-7.5-3-7.5-17.2v-30.3
	c0-5.7,0.4-8.5,3-11.9c2.8-3.8,9.3-6.9,16.8-6.9c13.5,0,18.6,8.3,18.6,19.6v29.5c0,14.3-0.2,16-7.5,17.2l-3.8,0.6
	c-1.4,1-1,4.3,0.4,4.9c5.3-0.4,11.3-0.6,18.4-0.6c6.9,0,12.7,0.2,18.6,0.6C1691.6,659.8,1692,656.5,1690.6,655.5z M378.9,143.5
	c15.4,15.3,42.1,33.3,61,43.3c18.7,10.5,41.3,20.8,69,27.7c5.1,1.3,13.3,1.9,20.5-11.3c0.8-1.5,17.7-32.3,18.5-33.8
	c7.2-13.2,2.3-19.8-1.5-23.4c-20.7-19.5-41.6-33-60.6-43.1c-18.7-10.5-48.2-23.3-69.4-28c-5.1-1.3-13.3-1.9-20.5,11.3
	c-0.8,1.5-17.6,32.3-18.5,33.8C370.1,133.3,375,139.9,378.9,143.5z M456.7,207c-7.7-3.5-14.9-7.3-21.6-11.1
	c-6.7-3.6-14.3-8.1-22.1-13.1l-42.7,77.8c23.3-7,46.1-15.7,69.4-21.3L456.7,207z M157.7,647.5c-2.6,5-5.1,11.3-5.4,14.7
	c-0.4,3.5-1,9.1,8.4,14.1c0.5,0.3,6,3.2,11.7,6.2c5.6,3,11.1,6,11.6,6.3c9.4,5.1,13.7,1.6,16.3-0.8c2.4-2.2,5.9-6.9,8.7-12
	L263,573.9h-64.8L157.7,647.5z M1793.7,651.9c-3,1-6.3,2-8.5,2c-5.5,0-5.7-7.3-5.7-23V544c0-8.7,0.4-18.6,0.6-24.6
	c-0.4-0.8-1.2-1.2-2-1.2c-7.1,3.8-16.4,6.7-21.4,8.3c-1,0.6-1,3.4,0,4l2,1.2c5.9,3.6,6.1,4.8,6.1,16.4v29.9c0,1.6-0.2,2.8-1.2,2.8
	c-2.2-0.8-6.5-1.8-13.3-1.8c-26.9,0-47.9,17.8-47.9,45.5c0,20.8,14.7,38,36.6,38c9.5,0,16.2-3.2,24.9-9.1h0.8
	c0.4,0.8,0.4,3.2,0.4,6.1v3.4c0,1,1,1.6,2.2,1.6c5.5-2.2,17.8-5.1,26.1-6.3C1795.3,657.2,1795.1,652.3,1793.7,651.9z M1764.8,640.2
	c0,3.2-0.2,6.1-1.4,7.3c-3.2,3.2-9.9,5.5-15.2,5.5c-19.4,0-29.5-17-29.5-35c0-17.2,9.3-32.9,27.3-32.9c7.7,0,13.7,4.2,16.6,8.3
	c1.4,2,2.2,3.8,2.2,7.7V640.2z M1364.8,529.2h-36.4c-7.9,0-14.6-0.2-23-0.6c-1.2,0.6-1.6,4.2-0.4,4.9l3.2,0.4
	c11.5,1.4,11.9,4.2,11.9,24.9v71.3c0,20.8-0.4,23.4-11.9,24.7l-5,0.6c-1.2,1.2-0.8,4.3,0.4,4.9c9.3-0.4,16-0.6,24.7-0.6
	c7.9,0,14.6,0.2,26.3,0.6c1.2-0.6,1.6-4.2,0.4-4.9l-6.7-0.6c-11.7-1-12.1-4-12.1-24.7v-27.5c0-5.1,0.6-5.3,6.5-5.3h13.5
	c7.5,0,12.5,0.2,15.2,1c3.8,1.2,5.5,4,6.3,7.5l2,7.7c1.4,1.2,4.4,1.2,5.1,0c0-4.6-0.8-12.1-0.8-19.2c0-7.3,0.8-15.2,0.8-20
	c-0.8-1.2-4.2-1.2-5.1,0l-1.8,7.9c-1.2,5.1-2.8,6.1-5,6.9c-2.4,0.8-8.7,1.2-16.8,1.2h-13.5c-5.9,0-6.5,0-6.5-5.3v-41.8
	c0-7.5,0-7.9,5.9-7.9h12.1c8.3,0,14.8,0.2,19.2,1.2c9.9,2.8,12.3,9.9,13.9,18.8c1.4,1.2,4.2,0.6,4.7-0.6c-0.4-7.5-0.6-17-0.6-26.1
	C1388.9,529.2,1377.4,529.2,1364.8,529.2z M509.9,105c1.3-3.2,2.5-6.4,3-8c0.9-3.4,1.6-8.8-6-12.9c-0.4-0.2-4.9-2.7-9.5-5.2
	c-4.6-2.6-9-5.1-9.5-5.3c-7.6-4.3-11.8-0.8-14.1,1.8c-1.2,1.3-3.3,4.3-5.3,7.4c8.2,3.7,15.9,7.6,22.3,11.2
	C497,97.3,503.4,101,509.9,105z M156.9,202.3c-2.5,1.3-5.1,2.7-7.8,4.2l17.8,33.7c23.3,5.9,46.1,14.7,69.6,21.6l-43.1-78.4
	C180.5,190.5,167.3,197.2,156.9,202.3z M448.4,647.5L408,573.9h-64.8L397.1,676c2.8,5.1,6.4,9.8,8.7,12c2.6,2.4,6.9,5.9,16.3,0.8
	c0.5-0.3,6-3.3,11.6-6.3c5.6-3,11.2-5.9,11.7-6.2c9.4-5,8.8-10.5,8.4-14.1C453.5,658.8,451.1,652.5,448.4,647.5z M2037,579.1
	c-23.4,0-42.2,17.8-42.2,42.8c0,24.7,17.8,40.8,40.6,40.8c24.7,0,41.8-17.8,41.8-42.6C2077.2,595.7,2059.2,579.1,2037,579.1z
	 M2037.4,656.7c-17.4,0-25.5-19.4-25.5-37.4c0-21.8,9.7-34.2,22.8-34.2c18.8,0,25.5,21.4,25.5,38.2
	C2060.2,638.4,2054.8,656.7,2037.4,656.7z M4518.7,576.1c-12.7,0-25.1,8.1-27.7,9.3c-1.4,0-1.8-1.2-1.8-2.6c0-2.6,0.4-5.5,0.8-9.1
	c-0.4-1-1.2-1.4-2.4-1.4c-5.2,3.8-14.5,8.5-19.6,10.7c-1,0.6-1,2.8-0.2,3.6l1.8,1.2c5.3,3.6,5.3,4.6,5.3,12.3v85.1
	c0,14.2-0.2,16.2-7.5,17.2l-4.2,0.6c-1.4,1-1,4.4,0.4,5c5.5-0.4,11.5-0.6,18.6-0.6c6.9,0,12.7,0.2,22.2,0.6c1.4-0.6,1.8-4,0.4-5
	l-7.7-1c-7.1-1-7.5-2.8-7.5-16.8v-20.8c0-4.2,1-5.2,2.8-5.5c1.8,0.4,7.3,0.8,10.9,0.8c28.1,0,48.3-19.8,48.3-47.3
	C4551.6,592.3,4538.7,576.1,4518.7,576.1z M4509.8,653.1c-4.2,0-10.3-1.4-14.3-4.4c-4-3.2-5.9-5.5-5.9-11.9v-34
	c0-6.5,0.6-9.5,2.4-11.7c2.2-2.4,8.3-5.5,16.8-5.5c17.8,0,26.7,16,26.7,31.9C4535.6,638,4526.1,653.1,4509.8,653.1z M4619.1,576.1
	c-12.7,0-25.1,8.1-27.7,9.3c-1.4,0-1.8-1.2-1.8-2.6c0-2.6,0.4-5.5,0.8-9.1c-0.4-1-1.2-1.4-2.4-1.4c-5.2,3.8-14.5,8.5-19.6,10.7
	c-1,0.6-1,2.8-0.2,3.6l1.8,1.2c5.3,3.6,5.3,4.6,5.3,12.3v85.1c0,14.2-0.2,16.2-7.5,17.2l-4.2,0.6c-1.4,1-1,4.4,0.4,5
	c5.5-0.4,11.5-0.6,18.6-0.6c6.9,0,12.7,0.2,22.2,0.6c1.4-0.6,1.8-4,0.4-5l-7.7-1c-7.1-1-7.5-2.8-7.5-16.8v-20.8c0-4.2,1-5.2,2.8-5.5
	c1.8,0.4,7.3,0.8,10.9,0.8c28.1,0,48.3-19.8,48.3-47.3C4652,592.3,4639.1,576.1,4619.1,576.1z M4610.2,653.1
	c-4.2,0-10.3-1.4-14.3-4.4c-4-3.2-5.9-5.5-5.9-11.9v-34c0-6.5,0.6-9.5,2.4-11.7c2.2-2.4,8.3-5.5,16.8-5.5c17.8,0,26.7,16,26.7,31.9
	C4635.9,638,4626.4,653.1,4610.2,653.1z M3953.6,583.2h-16c-4.4,0-5.7-0.4-12.1-3.2c-4.6-2-11.5-4-19-4c-17.6,0-32.3,12.9-32.3,29.9
	c0,12.7,8.1,20.4,14.8,23.9c0,1-1,2.6-2,3.8c-3.4,3.6-7.1,6.9-10.5,9.1c-2.2,1.6-3,2.4-3,3.4c0,6.9,6.7,13.7,14.5,15.6
	c1.8,1.2,0.2,3-1.6,4.7c-4.6,4.6-10.1,9.7-13.5,13.3c-1.4,1.6-2.2,4.2-2.2,7.3c0,9.9,8.5,23,32.9,23c25.7,0,49.3-15.8,49.3-37.4
	c0-19.8-16.6-21.8-27.7-21.8c-8.7,0-16.8,0.6-23.6,0.6c-9.3,0-13.9-3.8-13.9-8.3c0-5.7,6.3-9.5,8.7-10.9c2.4,0.2,5.1,0.6,8.7,0.6
	c25.1,0,33.3-17.8,33.3-31.5c0-3.4,0-6.7-0.4-10.1h14.3C3955.4,590.9,3955.8,584.2,3953.6,583.2z M3895.2,665.4
	c2.8-1.8,10.7-2.2,17-2.2h6.7c14.3,0,22.6,5.1,22.6,17.2c0,11.3-11.7,21.2-29.3,21.2c-18,0-26.5-8.9-26.5-19.6
	C3885.7,674.5,3890.4,668.3,3895.2,665.4z M3908.3,627.2c-9.5,0-18-9.1-18-23.2c0-13.5,7.1-22.2,16.6-22.2
	c12.1,0,17.6,11.3,17.6,24.7C3924.5,618.6,3918.9,627.2,3908.3,627.2z M4723,536.3c0,5.3,4,9.7,10.1,9.7c5.3,0,10.3-3.2,10.3-10.1
	c0-5.5-3.8-10.1-9.7-10.1C4728,525.8,4723,529.8,4723,536.3z M4753.5,652.5l-4.2-0.6c-7.1-1-7.5-3-7.5-17.2V599
	c0-8.1,0.4-17.6,0.8-24.5c-0.2-0.8-1-1.2-2-1.2c-4.6,3-15.8,8.1-20.4,9.7c-1,0.6-1,2.8-0.2,3.6l1.8,1.2c5.3,3.6,5.3,4.6,5.3,12.3
	v34.6c0,14.2-0.2,16.2-7.5,17.2l-4.2,0.6c-1.4,1-1,4.4,0.4,5c5.5-0.4,11.5-0.6,18.6-0.6c6.9,0,12.7,0.2,18.6,0.6
	C4754.5,656.9,4754.9,653.5,4753.5,652.5z M4830.1,638.8c-6.1,7.7-11.7,9.7-18.2,9.7c-21.2,0-32.9-17-32.9-37c0-4.9,0.2-5.3,5.3-5.3
	h36.6c8.3,0,11.1-0.2,11.7-1.4c0.4-0.8,0.8-2.4,0.8-5.1c0-11.9-11.1-23.6-28.1-23.6c-23.8,0-39.8,20.4-39.8,44.7
	c0,8.7,2.4,18,8.3,25.7c5.7,7.5,15.8,13.1,28.7,13.1c10.3,0,24.5-4.9,31.1-18.4C4833.5,639.4,4832.1,638.2,4830.1,638.8z
	 M4803.2,582c11.5,0,15.2,6.9,15.2,12.5c0,2.6-0.6,3.4-1.2,3.8c-1.6,1.2-5.9,2-20.6,2h-14.1c-1.4,0-1.4-0.6-1.4-1
	C4781.4,592.7,4791.5,582,4803.2,582z M4182,652.5l-4.4-0.6c-7.1-1-7.5-3-7.5-17.2v-34.1c0-13.3-6.7-24.5-23.2-24.5
	c-10.1,0-19.4,5-27.7,10.1c-1.4,0-2.2-1-2.2-2.2c0-1.8,0-4.8,0.4-9.3c-0.4-1-1.4-1.4-2.2-1.4c-4,3-15.2,8.1-19.8,9.7
	c-1,0.6-1,2.8-0.2,3.6l1.8,1.2c5.3,3.6,5.3,4.6,5.3,12.3v34.6c0,14.2-0.2,16.2-7.5,17.2l-4.2,0.6c-1.4,1-1,4.4,0.4,5
	c5.5-0.4,11.5-0.6,18.6-0.6c6.9,0,12.7,0.2,18,0.6c1.4-0.6,1.8-4,0.4-5l-3.6-0.6c-7.1-1.2-7.5-3-7.5-17.2v-30.3
	c0-5.7,0.4-8.5,3-11.9c2.8-3.8,9.3-6.9,16.8-6.9c13.5,0,18.6,8.3,18.6,19.6v29.5c0,14.2-0.2,16-7.5,17.2l-3.8,0.6
	c-1.4,1-1,4.4,0.4,5c5.3-0.4,11.3-0.6,18.4-0.6c6.9,0,12.7,0.2,18.6,0.6C4183,656.9,4183.4,653.5,4182,652.5z M4463.5,652.5
	l-5.3-0.6c-8.5-1-11.1-4-16.8-21l-27.1-79.6c-3-8.7-6.1-17.8-8.7-26.5c-0.4-1.4-1.8-1.8-3-1.8c-2.2,2.6-5.5,6.1-10.3,7.5
	c0.6,3.2-0.6,6.9-3.4,14.1l-20.2,53.4c-8.3,22.2-13.9,35-17.4,44.1c-2.8,7.1-7.1,9.3-11.9,9.7l-6.5,0.6c-1.2,1-0.8,4.2,0.4,5
	c5.3-0.2,12.5-0.6,19-0.6c9.3,0.2,15.4,0.2,20.6,0.6c1.8-0.8,1.8-4,0.4-5l-6.5-0.6c-4.8-0.4-5.7-1.6-5.7-4c0-2.2,1.4-7.5,4.4-16.4
	l6.9-20.8c1.4-4.2,2.6-4.7,7.5-4.7h29.9c5.9,0,6.7,0.6,8.1,4.9l8.7,26.9c1.6,4.7,2.6,8.3,2.6,10.5c0,2-2.8,3.2-6.9,3.6l-5.7,0.6
	c-1.4,1-1.2,4.2,0.4,5c5.7-0.2,13.3-0.6,22.8-0.6c8.9,0,15.8,0.2,23.9,0.6C4464.5,656.7,4464.9,653.5,4463.5,652.5z M4407.1,598.1
	h-24.3c-5.5,0-5.7-0.2-4.2-4.7l12.5-34.5c2.2-5.9,4.2-10.7,4.8-11.7h0.4c1.2,2.4,3,7.7,4.6,12.5l10.7,32.3
	C4413.2,597.3,4412.8,598.1,4407.1,598.1z M4083.2,648.3c-0.6,0-1.6,0.8-2.6,1.4c-1.2,0.6-3,1.2-4.9,1.2c-7.7,0-9.5-8.1-9.1-17.2
	l1.2-34.4c0.6-14.8-6.3-23.2-20.6-23.2c-14.5,0-36.8,14.1-36.8,24.4c0,1.8,1,2.8,2.8,2.8c3,0,8.3-1.4,11.3-3.8
	c1.6-1.2,1.8-3.6,2-6.7c0.4-6.1,7.1-8.9,12.7-8.9c12.3,0,14.7,9.9,14.5,17.2l-0.2,9.1c-0.2,3-0.4,4.7-3.4,5.7l-23.6,8.5
	c-12.7,4.6-16.4,9.1-16.4,16.8c0,5.5,2.4,10.5,6.1,13.9c3.4,3,8.1,4.6,13.9,4.6c5.5,0,9.9-2.6,14.3-4.9c4-2.2,6.3-4,7.7-4
	c1.2,0,2.4,1.6,3.2,2.8c3.4,4.3,8.1,6.1,12.9,6.1c9.7,0,16.6-7.7,16.6-8.7C4084.6,649.5,4084,648.3,4083.2,648.3z M4052.4,636.5
	c0,4.2-0.2,6.9-2.6,9.3c-2,2-8.1,5-12.1,5c-10.1,0-12.5-8.5-12.5-11.9c0-7.7,5.7-10.7,17.4-14.7c3.6-1.2,6.9-2,8.1-2
	c1.2,0,2,0.4,2,2.6L4052.4,636.5z M4285.2,648.9c-3,1-6.3,2-8.5,2c-5.5,0-5.7-7.3-5.7-23V541c0-8.7,0.4-18.6,0.6-24.5
	c-0.4-0.8-1.2-1.2-2-1.2c-7.1,3.8-16.4,6.7-21.4,8.3c-1,0.6-1,3.4,0,4l2,1.2c5.9,3.6,6.1,4.7,6.1,16.4v29.9c0,1.6-0.2,2.8-1.2,2.8
	c-2.2-0.8-6.5-1.8-13.3-1.8c-26.9,0-47.9,17.8-47.9,45.5c0,20.8,14.6,38,36.6,38c9.5,0,16.2-3.2,24.9-9.1h0.8
	c0.4,0.8,0.4,3.2,0.4,6.1v3.4c0,1,1,1.6,2.2,1.6c5.5-2.2,17.8-5.1,26.1-6.3C4286.7,654.3,4286.5,649.3,4285.2,648.9z M4256.3,637.3
	c0,3.2-0.2,6.1-1.4,7.3c-3.2,3.2-9.9,5.5-15.2,5.5c-19.4,0-29.5-17-29.5-35c0-17.2,9.3-32.9,27.3-32.9c7.7,0,13.7,4.2,16.6,8.3
	c1.4,2,2.2,3.8,2.2,7.7V637.3z M4703.2,652.5l-4.7-0.6c-7.1-1-7.5-3-7.5-17.2V541c0-8.7,0.4-18.6,0.6-24.5c-0.4-0.8-1.2-1.2-2-1.2
	c-7.1,3.8-16.4,6.7-21.4,8.3c-1,0.6-1,3.4,0,4l2,1.2c5.9,3.6,6.1,4.7,6.1,16.4v89.5c0,14.2-0.2,16.2-7.5,17.2l-4.6,0.6
	c-1.4,1-1,4.4,0.4,5c5.9-0.4,11.9-0.6,19-0.6c6.9,0,12.7,0.2,19.2,0.6C4704.2,656.9,4704.6,653.5,4703.2,652.5z M5285.6,638.8
	c-6.1,7.7-11.7,9.7-18.2,9.7c-21.2,0-32.9-17-32.9-37c0-4.9,0.2-5.3,5.3-5.3h36.6c8.3,0,11.1-0.2,11.7-1.4c0.4-0.8,0.8-2.4,0.8-5.1
	c0-11.9-11.1-23.6-28.1-23.6c-23.8,0-39.8,20.4-39.8,44.7c0,8.7,2.4,18,8.3,25.7c5.7,7.5,15.8,13.1,28.7,13.1
	c10.3,0,24.5-4.9,31.1-18.4C5289,639.4,5287.6,638.2,5285.6,638.8z M5258.7,582c11.5,0,15.2,6.9,15.2,12.5c0,2.6-0.6,3.4-1.2,3.8
	c-1.6,1.2-5.9,2-20.6,2h-14.1c-1.4,0-1.4-0.6-1.4-1C5236.9,592.7,5247,582,5258.7,582z M5391.5,652.5l-4.4-0.6
	c-7.1-1-7.5-3-7.5-17.2v-34.1c0-13.3-6.7-24.5-23.2-24.5c-10.1,0-19.4,5-27.7,10.1c-1.4,0-2.2-1-2.2-2.2c0-1.8,0-4.8,0.4-9.3
	c-0.4-1-1.4-1.4-2.2-1.4c-4,3-15.2,8.1-19.8,9.7c-1,0.6-1,2.8-0.2,3.6l1.8,1.2c5.3,3.6,5.3,4.6,5.3,12.3v34.6
	c0,14.2-0.2,16.2-7.5,17.2l-4.2,0.6c-1.4,1-1,4.4,0.4,5c5.5-0.4,11.5-0.6,18.6-0.6c6.9,0,12.7,0.2,18,0.6c1.4-0.6,1.8-4,0.4-5
	l-3.6-0.6c-7.1-1.2-7.5-3-7.5-17.2v-30.3c0-5.7,0.4-8.5,3-11.9c2.8-3.8,9.3-6.9,16.8-6.9c13.5,0,18.6,8.3,18.6,19.6v29.5
	c0,14.2-0.2,16-7.5,17.2l-3.8,0.6c-1.4,1-1,4.4,0.4,5c5.3-0.4,11.3-0.6,18.4-0.6c6.9,0,12.7,0.2,18.6,0.6
	C5392.5,656.9,5392.9,653.5,5391.5,652.5z M4935.2,648.9c-3,1-6.3,2-8.5,2c-5.5,0-5.7-7.3-5.7-23V541c0-8.7,0.4-18.6,0.6-24.5
	c-0.4-0.8-1.2-1.2-2-1.2c-7.1,3.8-16.4,6.7-21.4,8.3c-1,0.6-1,3.4,0,4l2,1.2c5.9,3.6,6.1,4.7,6.1,16.4v29.9c0,1.6-0.2,2.8-1.2,2.8
	c-2.2-0.8-6.5-1.8-13.3-1.8c-26.9,0-47.9,17.8-47.9,45.5c0,20.8,14.6,38,36.6,38c9.5,0,16.2-3.2,24.9-9.1h0.8
	c0.4,0.8,0.4,3.2,0.4,6.1v3.4c0,1,1,1.6,2.2,1.6c5.5-2.2,17.8-5.1,26.1-6.3C4936.8,654.3,4936.6,649.3,4935.2,648.9z M4906.3,637.3
	c0,3.2-0.2,6.1-1.4,7.3c-3.2,3.2-9.9,5.5-15.2,5.5c-19.4,0-29.5-17-29.5-35c0-17.2,9.3-32.9,27.3-32.9c7.7,0,13.7,4.2,16.6,8.3
	c1.4,2,2.2,3.8,2.2,7.7V637.3z M5547.1,638.8c-6.1,7.7-11.7,9.7-18.2,9.7c-21.2,0-32.9-17-32.9-37c0-4.9,0.2-5.3,5.3-5.3h36.6
	c8.3,0,11.1-0.2,11.7-1.4c0.4-0.8,0.8-2.4,0.8-5.1c0-11.9-11.1-23.6-28.1-23.6c-23.8,0-39.8,20.4-39.8,44.7c0,8.7,2.4,18,8.3,25.7
	c5.7,7.5,15.8,13.1,28.7,13.1c10.3,0,24.5-4.9,31.1-18.4C5550.5,639.4,5549.1,638.2,5547.1,638.8z M5520.2,582
	c11.5,0,15.2,6.9,15.2,12.5c0,2.6-0.6,3.4-1.2,3.8c-1.6,1.2-5.9,2-20.6,2h-14.1c-1.4,0-1.4-0.6-1.4-1
	C5498.4,592.7,5508.5,582,5520.2,582z M5471.7,636.7c-4.6,6.7-10.5,11.9-22,11.9c-21.2,0-31.9-18.4-31.9-33.9
	c0-21,13.5-31.9,27.3-31.9c8.1,0,15.4,5.1,19.8,10.5c0.8,1,1.8,1.4,2.8,1.4c2.4,0,4.3-3.8,4.3-7.3c0-3.4-1.4-6.5-3-7.9
	c-5.3-2.4-13.1-3.4-17.6-3.4c-32.9,0-47.9,22.8-47.9,44.1c0,12.9,4.6,22.6,11.5,29.3c6.9,6.7,16.6,10.1,27.1,10.1
	c11.5,0,26.3-5.5,33.1-20.2C5475,637.6,5473.3,636.3,5471.7,636.7z M5049.1,585.4l-15.8-9.9c-7.3-4.8-16.8-12.9-16.8-24.4
	c0-9.1,4.2-22,23.6-22c19,0,24.3,12.9,26.9,22.4c1,1.2,4.2,0.6,5-0.6c0-8.3-1.8-19.4-3.6-24.1c-1.6,0-4.3-0.6-6.9-1.2
	c-5.1-1.6-12.3-2.6-18.4-2.6c-25.7,0-40.4,15.2-40.4,34c0,16.2,11.5,27.5,21.4,34.1l18.8,12.3c14.5,9.3,16.2,19,16.2,27.7
	c0,11.9-8.1,22.8-24.7,22.8c-23,0-31.1-19.4-34.1-29.5c-0.8-1.2-3.8-0.8-4.8,0.6c0.4,9.3,3,23.4,5.3,27.7c3.8,2.2,14.2,7.3,30.9,7.3
	c25.7,0,42.2-14.9,42.2-36.6C5073.8,604.6,5061.5,593.1,5049.1,585.4z M5159.3,636.7c-4.6,6.7-10.5,11.9-22,11.9
	c-21.2,0-31.9-18.4-31.9-33.9c0-21,13.5-31.9,27.3-31.9c8.1,0,15.4,5.1,19.8,10.5c0.8,1,1.8,1.4,2.8,1.4c2.4,0,4.4-3.8,4.4-7.3
	c0-3.4-1.4-6.5-3-7.9c-5.3-2.4-13.1-3.4-17.6-3.4c-32.9,0-47.9,22.8-47.9,44.1c0,12.9,4.6,22.6,11.5,29.3
	c6.9,6.7,16.6,10.1,27.1,10.1c11.5,0,26.3-5.5,33.1-20.2C5162.7,637.6,5160.9,636.3,5159.3,636.7z M5209,652.5l-4.2-0.6
	c-7.1-1-7.5-3-7.5-17.2V599c0-8.1,0.4-17.6,0.8-24.5c-0.2-0.8-1-1.2-2-1.2c-4.6,3-15.8,8.1-20.4,9.7c-1,0.6-1,2.8-0.2,3.6l1.8,1.2
	c5.3,3.6,5.3,4.6,5.3,12.3v34.6c0,14.2-0.2,16.2-7.5,17.2l-4.2,0.6c-1.4,1-1,4.4,0.4,5c5.5-0.4,11.5-0.6,18.6-0.6
	c6.9,0,12.7,0.2,18.6,0.6C5210,656.9,5210.4,653.5,5209,652.5z M5198.9,535.9c0-5.5-3.8-10.1-9.7-10.1c-5.7,0-10.7,4-10.7,10.5
	c0,5.3,4,9.7,10.1,9.7C5194,546,5198.9,542.8,5198.9,535.9z M2660.8,579.1c-23.4,0-42.2,17.8-42.2,42.8c0,24.7,17.8,40.8,40.6,40.8
	c24.7,0,41.8-17.8,41.8-42.6C2700.9,595.7,2682.9,579.1,2660.8,579.1z M2661.2,656.7c-17.4,0-25.5-19.4-25.5-37.4
	c0-21.8,9.7-34.2,22.8-34.2c18.8,0,25.5,21.4,25.5,38.2C2683.9,638.4,2678.6,656.7,2661.2,656.7z M2752.2,655.5l-4.8-0.6
	c-7.1-1-7.5-3-7.5-17.2V544c0-8.7,0.4-18.6,0.6-24.6c-0.4-0.8-1.2-1.2-2-1.2c-7.1,3.8-16.4,6.7-21.4,8.3c-1,0.6-1,3.4,0,4l2,1.2
	c5.9,3.6,6.1,4.8,6.1,16.4v89.5c0,14.3-0.2,16.2-7.5,17.2l-4.6,0.6c-1.4,1-1,4.3,0.4,4.9c5.9-0.4,11.9-0.6,19-0.6
	c6.9,0,12.7,0.2,19.2,0.6C2753.2,659.8,2753.6,656.5,2752.2,655.5z M2855.3,579.1c-23.4,0-42.2,17.8-42.2,42.8
	c0,24.7,17.8,40.8,40.6,40.8c24.7,0,41.8-17.8,41.8-42.6C2895.5,595.7,2877.5,579.1,2855.3,579.1z M2855.7,656.7
	c-17.4,0-25.5-19.4-25.5-37.4c0-21.8,9.7-34.2,22.8-34.2c18.8,0,25.5,21.4,25.5,38.2C2878.5,638.4,2873.2,656.7,2855.7,656.7z
	 M2183.1,655.5l-4.4-0.6c-7.1-1-7.5-3-7.5-17.2v-34c0-13.3-6.7-24.5-23.2-24.5c-10.1,0-19.4,5-27.7,10.1c-1.4,0-2.2-1-2.2-2.2
	c0-1.8,0-4.7,0.4-9.3c-0.4-1-1.4-1.4-2.2-1.4c-4,3-15.2,8.1-19.8,9.7c-1,0.6-1,2.8-0.2,3.6l1.8,1.2c5.3,3.6,5.3,4.6,5.3,12.3v34.6
	c0,14.3-0.2,16.2-7.5,17.2l-4.2,0.6c-1.4,1-1,4.3,0.4,4.9c5.5-0.4,11.5-0.6,18.6-0.6c6.9,0,12.7,0.2,18,0.6c1.4-0.6,1.8-4,0.4-4.9
	l-3.6-0.6c-7.1-1.2-7.5-3-7.5-17.2v-30.3c0-5.7,0.4-8.5,3-11.9c2.8-3.8,9.3-6.9,16.8-6.9c13.5,0,18.6,8.3,18.6,19.6v29.5
	c0,14.3-0.2,16-7.5,17.2l-3.8,0.6c-1.4,1-1,4.3,0.4,4.9c5.3-0.4,11.3-0.6,18.4-0.6c6.9,0,12.7,0.2,18.6,0.6
	C2184.1,659.8,2184.5,656.5,2183.1,655.5z M2963,518.3c-19.6,0-30.7,13.9-35.6,25.1c-4.8,11.1-6.1,23.4-6.1,34.8c0,2-1.4,3.2-3,4
	l-8.5,4.2c-0.8,1.2-0.6,3,0.6,3.8h6.9c4,0,4,0.4,4,5.7v41.8c0,14.3-0.2,16.2-7.5,17.2l-4.6,0.6c-1.4,1-1,4.3,0.4,4.9
	c5.9-0.4,11.9-0.6,19-0.6c6.9,0,12.7,0.2,21.6,0.6c1.4-0.6,1.8-4,0.4-4.9l-7.1-0.6c-7.1-0.6-7.5-3-7.5-17.2v-41.8
	c0-5.3,0-5.7,3.4-5.7h21.2c2.2-0.8,3.6-6.3,1.4-8.3h-22.6c-3.4,0-3.4-0.2-3.4-5.5v-5.7c0-9.9,0.8-24.3,4.4-33.4
	c3-7.1,7.9-10.9,14.1-10.9c6.5,0,12.1,4.3,15.8,8.7c1.4,1.6,2.6,2.4,4.8,2.4c3.8,0,7.5-3.2,7.5-7.1
	C2982.4,523,2973.5,518.3,2963,518.3z M2299.3,588.4l-15.8-9.9c-7.3-4.8-16.8-12.9-16.8-24.3c0-9.1,4.2-22,23.6-22
	c19,0,24.4,12.9,26.9,22.4c1,1.2,4.2,0.6,5-0.6c0-8.3-1.8-19.4-3.6-24.1c-1.6,0-4.4-0.6-6.9-1.2c-5.1-1.6-12.3-2.6-18.4-2.6
	c-25.7,0-40.4,15.2-40.4,34.1c0,16.2,11.5,27.5,21.4,34.1l18.8,12.3c14.4,9.3,16.2,19,16.2,27.7c0,11.9-8.1,22.8-24.7,22.8
	c-23,0-31.1-19.4-34.1-29.5c-0.8-1.2-3.8-0.8-4.7,0.6c0.4,9.3,3,23.4,5.3,27.7c3.8,2.2,14.2,7.3,30.9,7.3
	c25.7,0,42.2-14.8,42.2-36.6C2324,607.6,2311.8,596.1,2299.3,588.4z M3135.2,628.5c-5.1,10.3-10.5,17.2-14.1,19.2
	c-4.4,2.2-10.1,3-25.3,3c-17.4,0-21.6-2.2-24-4.6c-3.2-3.4-3.8-10.1-3.8-20.6v-27.9c0-5.2,0.6-5.3,6.5-5.3h11.5
	c7.7,0,12.5,0.2,15.2,1c4,1,5.3,4,6.1,7.5l1.8,7.7c1,1.2,4.4,1.2,5.1-0.2c0-4.4-0.8-11.9-0.8-19c0-7.5,0.8-15.2,0.8-20
	c-0.8-1.4-4.2-1.4-5.1-0.2l-1.6,8.1c-1,4.9-2.4,6.1-4.8,6.9c-2.4,0.8-8.5,1.2-16.8,1.2h-11.5c-5.9,0-6.5,0-6.5-5.5v-39.6
	c0-7.5,0-7.9,5.9-7.9h14.3c8.7,0,15,0.2,19.2,1.2c10.3,2.6,12.1,9.5,15,18.8c1,1.2,4.2,0.8,4.9-0.4c-0.8-8.7-2-23-3.2-26.3
	c-2.4,0.6-14.1,0.6-26.7,0.6h-37.2c-8.1,0-14.8-0.2-23.4-0.6c-1.2,0.6-1.6,4.2-0.4,4.9l3.2,0.4c11.7,1.4,12.1,4.4,12.1,24.9v71.3
	c0,20.8-1,23.8-12.3,24.7l-6.5,0.6c-1.2,1.2-0.8,4.4,0.4,5c11.7-0.4,18.4-0.6,26.9-0.6h17.8c17.6,0,35.2,0.2,53.1,0.6
	c2.6-5.3,7.5-20.6,8.9-27.5C3139.4,628.1,3136.6,627.5,3135.2,628.5z M2409.6,639.6c-4.5,6.7-10.5,11.9-22,11.9
	c-21.2,0-31.9-18.4-31.9-33.8c0-21,13.5-31.9,27.3-31.9c8.1,0,15.4,5.1,19.8,10.5c0.8,1,1.8,1.4,2.8,1.4c2.4,0,4.3-3.8,4.3-7.3
	c0-3.4-1.4-6.5-3-7.9c-5.3-2.4-13.1-3.4-17.6-3.4c-32.9,0-47.9,22.8-47.9,44.1c0,12.9,4.6,22.6,11.5,29.3
	c6.9,6.7,16.6,10.1,27.1,10.1c11.5,0,26.3-5.5,33.1-20.2C2412.9,640.6,2411.1,639.2,2409.6,639.6z M2564.6,579.1
	c-23.4,0-42.2,17.8-42.2,42.8c0,24.7,17.8,40.8,40.6,40.8c24.7,0,41.8-17.8,41.8-42.6C2604.7,595.7,2586.7,579.1,2564.6,579.1z
	 M2565,656.7c-17.4,0-25.5-19.4-25.5-37.4c0-21.8,9.7-34.2,22.8-34.2c18.8,0,25.5,21.4,25.5,38.2
	C2587.7,638.4,2582.4,656.7,2565,656.7z M2511.5,655.5l-5.3-0.6c-7.1-0.8-7.5-3-7.5-17.2v-33.1c0-13.9-6.7-25.5-25.5-25.5
	c-10.1,0-19.6,4.7-26.7,10.3c-0.6-0.4-0.8-2-0.8-3.8V544c0-8.7,0.4-18.6,0.6-24.6c-0.4-0.8-1.2-1.2-2-1.2
	c-7.1,3.8-16.4,6.7-21.4,8.3c-1,0.6-1,3.4,0,4l2,1.2c5.9,3.6,6.1,4.8,6.1,16.4v89.5c0,14.3-0.2,16.4-7.5,17.2l-5,0.6
	c-1.4,1-1,4.3,0.4,4.9c6.3-0.4,12.3-0.6,19.4-0.6c6.9,0,12.7,0.2,18.6,0.6c1.4-0.6,1.8-4.2,0.4-4.9l-4.2-0.6c-7.1-1-7.5-3-7.5-17.2
	v-33.3c0-6.9,0.6-7.9,4.2-10.9c3.6-3,8.7-5.3,15.4-5.3c12.7,0,18.8,8.5,18.8,21.2v28.3c0,14.3-0.2,16-7.5,17.2l-4,0.6
	c-1.4,1-1,4.3,0.4,4.9c5.3-0.4,11.3-0.6,18.4-0.6c6.9,0,12.7,0.2,19.8,0.6C2512.5,659.8,2512.9,656.5,2511.5,655.5z M3860.4,652.5
	l-4.4-0.6c-7.1-1-7.5-3-7.5-17.2v-34.1c0-13.3-6.7-24.5-23.2-24.5c-10.1,0-19.4,5-27.7,10.1c-1.4,0-2.2-1-2.2-2.2
	c0-1.8,0-4.8,0.4-9.3c-0.4-1-1.4-1.4-2.2-1.4c-4,3-15.2,8.1-19.8,9.7c-1,0.6-1,2.8-0.2,3.6l1.8,1.2c5.3,3.6,5.3,4.6,5.3,12.3v34.6
	c0,14.2-0.2,16.2-7.5,17.2l-4.2,0.6c-1.4,1-1,4.4,0.4,5c5.5-0.4,11.5-0.6,18.6-0.6c6.9,0,12.7,0.2,18,0.6c1.4-0.6,1.8-4,0.4-5
	l-3.6-0.6c-7.1-1.2-7.5-3-7.5-17.2v-30.3c0-5.7,0.4-8.5,3-11.9c2.8-3.8,9.3-6.9,16.8-6.9c13.5,0,18.6,8.3,18.6,19.6v29.5
	c0,14.2-0.2,16-7.5,17.2l-3.8,0.6c-1.4,1-1,4.4,0.4,5c5.3-0.4,11.3-0.6,18.4-0.6c6.9,0,12.7,0.2,18.6,0.6
	C3861.3,656.9,3861.7,653.5,3860.4,652.5z M3559.5,638.8c-6.1,7.7-11.7,9.7-18.2,9.7c-21.2,0-32.9-17-32.9-37c0-4.9,0.2-5.3,5.3-5.3
	h36.6c8.3,0,11.1-0.2,11.7-1.4c0.4-0.8,0.8-2.4,0.8-5.1c0-11.9-11.1-23.6-28.1-23.6c-23.8,0-39.8,20.4-39.8,44.7
	c0,8.7,2.4,18,8.3,25.7c5.7,7.5,15.8,13.1,28.7,13.1c10.3,0,24.5-4.9,31.1-18.4C3562.8,639.4,3561.4,638.2,3559.5,638.8z
	 M3532.5,582c11.5,0,15.2,6.9,15.2,12.5c0,2.6-0.6,3.4-1.2,3.8c-1.6,1.2-5.9,2-20.6,2H3512c-1.4,0-1.4-0.6-1.4-1
	C3510.8,592.7,3520.9,582,3532.5,582z M3637.9,638.8c-6.1,7.7-11.7,9.7-18.2,9.7c-21.2,0-32.9-17-32.9-37c0-4.9,0.2-5.3,5.3-5.3
	h36.6c8.3,0,11.1-0.2,11.7-1.4c0.4-0.8,0.8-2.4,0.8-5.1c0-11.9-11.1-23.6-28.1-23.6c-23.8,0-39.8,20.4-39.8,44.7
	c0,8.7,2.4,18,8.3,25.7c5.7,7.5,15.8,13.1,28.7,13.1c10.3,0,24.5-4.9,31.1-18.4C3641.2,639.4,3639.8,638.2,3637.9,638.8z
	 M3610.9,582c11.5,0,15.2,6.9,15.2,12.5c0,2.6-0.6,3.4-1.2,3.8c-1.6,1.2-5.9,2-20.6,2h-14.1c-1.4,0-1.4-0.6-1.4-1
	C3589.2,592.7,3599.3,582,3610.9,582z M3701.2,576.1c-7.3,0-14.8,6.1-21.8,11.9c-0.4-0.2-0.6-0.8-0.6-1.8v-11.5
	c0-0.8-0.6-1.2-1.6-1.4c-5,3-15.4,8.1-20,9.7c-1,0.6-1,2.8-0.2,3.6l1.8,1.2c5.3,3.6,5.3,4.6,5.3,12.3v34.6c0,14.2-0.2,16-7.5,17.2
	l-3.8,0.6c-1.4,1-1,4.4,0.4,5c5.1-0.4,11.1-0.6,18.2-0.6c6.9,0,12.7,0.2,22,0.6c1.4-0.6,1.8-4,0.4-5l-7.1-0.6
	c-7.5-0.6-7.9-3-7.9-17.2v-26.9c0-6.7,0.6-12.5,2.6-15.2c1.6-2.2,4-4,7.1-4c2.8,0,5.7,1.2,8.7,3.2c1.4,0.8,2.4,1.4,4.4,1.4
	c3.2,0,8.5-2.6,8.5-9.1C3710.1,579.2,3706.2,576.1,3701.2,576.1z M3240,652.5l-4.4-0.6c-7.1-1-7.5-3-7.5-17.2v-34.1
	c0-13.3-6.7-24.5-23.2-24.5c-10.1,0-19.4,5-27.7,10.1c-1.4,0-2.2-1-2.2-2.2c0-1.8,0-4.8,0.4-9.3c-0.4-1-1.4-1.4-2.2-1.4
	c-4,3-15.2,8.1-19.8,9.7c-1,0.6-1,2.8-0.2,3.6l1.8,1.2c5.3,3.6,5.3,4.6,5.3,12.3v34.6c0,14.2-0.2,16.2-7.5,17.2l-4.2,0.6
	c-1.4,1-1,4.4,0.4,5c5.5-0.4,11.5-0.6,18.6-0.6c6.9,0,12.7,0.2,18,0.6c1.4-0.6,1.8-4,0.4-5l-3.6-0.6c-7.1-1.2-7.5-3-7.5-17.2v-30.3
	c0-5.7,0.4-8.5,3-11.9c2.8-3.8,9.3-6.9,16.8-6.9c13.5,0,18.6,8.3,18.6,19.6v29.5c0,14.2-0.2,16-7.5,17.2l-3.8,0.6
	c-1.4,1-1,4.4,0.4,5c5.3-0.4,11.3-0.6,18.4-0.6c6.9,0,12.7,0.2,18.6,0.6C3241,656.9,3241.4,653.5,3240,652.5z M3756.2,652.5
	l-4.2-0.6c-7.1-1-7.5-3-7.5-17.2V599c0-8.1,0.4-17.6,0.8-24.5c-0.2-0.8-1-1.2-2-1.2c-4.6,3-15.8,8.1-20.4,9.7c-1,0.6-1,2.8-0.2,3.6
	l1.8,1.2c5.3,3.6,5.3,4.6,5.3,12.3v34.6c0,14.2-0.2,16.2-7.5,17.2l-4.2,0.6c-1.4,1-1,4.4,0.4,5c5.5-0.4,11.5-0.6,18.6-0.6
	c6.9,0,12.7,0.2,18.6,0.6C3757.2,656.9,3757.6,653.5,3756.2,652.5z M3483.1,652.5l-4.4-0.6c-7.1-1-7.5-3-7.5-17.2v-34.1
	c0-13.3-6.7-24.5-23.2-24.5c-10.1,0-19.4,5-27.7,10.1c-1.4,0-2.2-1-2.2-2.2c0-1.8,0-4.8,0.4-9.3c-0.4-1-1.4-1.4-2.2-1.4
	c-4,3-15.2,8.1-19.8,9.7c-1,0.6-1,2.8-0.2,3.6l1.8,1.2c5.3,3.6,5.3,4.6,5.3,12.3v34.6c0,14.2-0.2,16.2-7.5,17.2l-4.2,0.6
	c-1.4,1-1,4.4,0.4,5c5.5-0.4,11.5-0.6,18.6-0.6c6.9,0,12.7,0.2,18,0.6c1.4-0.6,1.8-4,0.4-5l-3.6-0.6c-7.1-1.2-7.5-3-7.5-17.2v-30.3
	c0-5.7,0.4-8.5,3-11.9c2.8-3.8,9.3-6.9,16.8-6.9c13.5,0,18.6,8.3,18.6,19.6v29.5c0,14.2-0.2,16-7.5,17.2l-3.8,0.6
	c-1.4,1-1,4.4,0.4,5c5.3-0.4,11.3-0.6,18.4-0.6c6.9,0,12.7,0.2,18.6,0.6C3484.1,656.9,3484.4,653.5,3483.1,652.5z M3333.2,583.2h-16
	c-4.4,0-5.7-0.4-12.1-3.2c-4.6-2-11.5-4-19-4c-17.6,0-32.3,12.9-32.3,29.9c0,12.7,8.1,20.4,14.8,23.9c0,1-1,2.6-2,3.8
	c-3.4,3.6-7.1,6.9-10.5,9.1c-2.2,1.6-3,2.4-3,3.4c0,6.9,6.7,13.7,14.5,15.6c1.8,1.2,0.2,3-1.6,4.7c-4.6,4.6-10.1,9.7-13.5,13.3
	c-1.4,1.6-2.2,4.2-2.2,7.3c0,9.9,8.5,23,32.9,23c25.7,0,49.3-15.8,49.3-37.4c0-19.8-16.6-21.8-27.7-21.8c-8.7,0-16.8,0.6-23.6,0.6
	c-9.3,0-13.9-3.8-13.9-8.3c0-5.7,6.3-9.5,8.7-10.9c2.4,0.2,5.1,0.6,8.7,0.6c25.1,0,33.3-17.8,33.3-31.5c0-3.4,0-6.7-0.4-10.1h14.3
	C3335,590.9,3335.4,584.2,3333.2,583.2z M3274.8,665.4c2.8-1.8,10.7-2.2,17-2.2h6.7c14.3,0,22.6,5.1,22.6,17.2
	c0,11.3-11.7,21.2-29.3,21.2c-18,0-26.5-8.9-26.5-19.6C3265.3,674.5,3270.1,668.3,3274.8,665.4z M3287.9,627.2
	c-9.5,0-18-9.1-18-23.2c0-13.5,7.1-22.2,16.6-22.2c12.1,0,17.6,11.3,17.6,24.7C3304.1,618.6,3298.6,627.2,3287.9,627.2z
	 M3348.5,536.3c0,5.3,4,9.7,10.1,9.7c5.3,0,10.3-3.2,10.3-10.1c0-5.5-3.8-10.1-9.7-10.1C3353.4,525.8,3348.5,529.8,3348.5,536.3z
	 M3378.9,652.5l-4.2-0.6c-7.1-1-7.5-3-7.5-17.2V599c0-8.1,0.4-17.6,0.8-24.5c-0.2-0.8-1-1.2-2-1.2c-4.6,3-15.8,8.1-20.4,9.7
	c-1,0.6-1,2.8-0.2,3.6l1.8,1.2c5.3,3.6,5.3,4.6,5.3,12.3v34.6c0,14.2-0.2,16.2-7.5,17.2l-4.2,0.6c-1.4,1-1,4.4,0.4,5
	c5.5-0.4,11.5-0.6,18.6-0.6c6.9,0,12.7,0.2,18.6,0.6C3379.9,656.9,3380.3,653.5,3378.9,652.5z"/>
</svg>
